<?xml version="1.0" ?><svg height="512" id="svg2" version="1.1" width="512" xmlns="http://www.w3.org/2000/svg" xmlns:cc="http://creativecommons.org/ns#" xmlns:dc="http://purl.org/dc/elements/1.1/" xmlns:inkscape="http://www.inkscape.org/namespaces/inkscape" xmlns:rdf="http://www.w3.org/1999/02/22-rdf-syntax-ns#" xmlns:sodipodi="http://sodipodi.sourceforge.net/DTD/sodipodi-0.dtd" xmlns:svg="http://www.w3.org/2000/svg"><defs id="defs4"/><g id="layer1" transform="translate(0,-540.36218)"><g id="g4305"><g id="g4345" transform="translate(28,-40.00001)"><g id="text2994" style="font-size:550px;font-style:normal;font-variant:normal;font-weight:normal;font-stretch:normal;text-align:start;line-height:125%;letter-spacing:0px;word-spacing:0px;writing-mode:lr-tb;text-anchor:start;fill:#222222;fill-opacity:1;stroke:none;font-family:Ubuntu;-inkscape-font-specification:Ubuntu"><path d="m 2.9119103,925.68575 c -18.7451653,18.74516 -3.54920937,64.33304 33.9411467,101.82335 37.490349,37.4904 83.078213,52.6863 101.823383,33.9412 l 254.55844,-254.55847 -8.48528,-8.48528 8.48528,-8.48528 -16.97057,-16.97056 84.85282,-84.85282 -84.85284,-84.85283 -84.85281,84.85281 -16.97056,-16.97056 -8.48528,8.48528 -8.48529,-8.48528 L 2.9119103,925.68575 z M 143.97972,842.47696 c 4.90393,-4.90379 9.72281,-8.67453 14.53104,-11.29603 4.6128,-2.51468 8.76981,-4.35865 12.51579,-5.4624 1.36737,-0.38943 2.96487,0.34968 3.55321,1.64402 l 7.98147,17.10315 c 0.70503,1.54196 -0.21203,3.60203 -1.82964,4.11005 -2.80868,0.89218 -5.76855,2.12186 -8.83,3.6858 -2.82154,1.44155 -5.8887,3.76749 -9.12167,7.00036 -3.60582,3.60592 -5.4229,6.59362 -5.80712,8.29966 -0.40598,1.803 -0.0941,2.92877 1.53796,4.56084 0.95638,0.9564 1.80564,1.36192 2.62513,1.51144 1.01882,0.18598 2.26531,0.15425 3.79186,-0.18561 1.61561,-0.35962 3.36051,-0.93109 5.25027,-1.75009 1.98925,-0.86198 4.1532,-1.85823 6.49657,-2.99635 0.0174,-0.0179 0.0351,-0.0356 0.053,-0.053 5.09096,-2.33952 9.70778,-4.21424 13.86809,-5.64806 4.28961,-1.47809 8.41348,-2.24366 12.35669,-2.28042 3.99071,-0.0371 7.86539,0.76991 11.50821,2.43956 3.68226,1.6879 7.26806,4.35135 10.84525,7.92844 7.08117,7.08127 10.34257,15.6178 9.25421,24.73985 -1.10006,9.21929 -6.67906,18.50551 -16.25457,28.08102 -3.20863,3.20863 -6.32903,5.94788 -9.36033,8.1936 -2.96553,2.19694 -5.73758,4.02017 -8.3527,5.48892 -2.5687,1.44288 -4.93125,2.59916 -7.10646,3.4471 -2.07356,0.80841 -3.9077,1.43628 -5.54191,1.88272 -1.35426,0.3793 -2.93072,-0.34375 -3.52674,-1.61755 l -8.14056,-17.10315 c -0.73849,-1.5656 0.21926,-3.68363 1.88271,-4.16305 2.98624,-0.87136 6.44794,-2.33121 10.31488,-4.42829 3.65759,-1.98345 7.70226,-5.15668 12.03849,-9.49291 2.12127,-2.12127 3.61023,-3.99937 4.50785,-5.51539 0.94848,-1.60185 1.4581,-2.92911 1.61751,-3.95096 0.16592,-1.06316 0.05,-1.81595 -0.23869,-2.46608 -0.3751,-0.84458 -0.93639,-1.67878 -1.80313,-2.54558 -1.64193,-1.64187 -3.3909,-2.19445 -6.39047,-1.67054 -3.10695,0.54286 -8.39055,2.52585 -15.32654,5.99273 -0.009,0.009 -0.0176,0.0178 -0.0265,0.0264 -3.20785,1.53286 -6.53153,2.95668 -9.9702,4.24264 -3.61461,1.35226 -7.30674,2.12885 -11.03083,2.38653 -3.82079,0.26444 -7.66014,-0.22659 -11.42865,-1.45845 -3.9779,-1.30028 -7.70741,-3.78295 -11.21646,-7.29202 -3.5236,-3.52357 -6.10789,-7.4627 -7.66327,-11.74681 -1.54043,-4.2431 -2.09513,-8.6497 -1.64403,-13.15218 0.45146,-4.50488 1.88506,-9.0064 4.24264,-13.47039 2.37049,-4.48806 5.65935,-8.84118 9.83763,-13.0196 z m 58.76057,-57.11655 c 4.58257,-4.58244 9.16283,-8.48308 13.73555,-11.7203 4.64249,-3.28635 9.28973,-5.60409 13.9742,-6.86777 4.72311,-1.27385 9.48344,-1.35487 14.05374,-0.21213 4.69943,1.17529 9.07691,3.87981 13.09916,7.90191 5.10119,5.1013 7.2796,11.72773 6.73517,19.03883 4.73476,-1.43788 9.16931,-1.70854 13.23178,-0.5568 5.06249,1.43553 9.64853,4.23932 13.62948,8.22012 7.91355,7.9137 11.26941,17.37451 9.43983,27.41802 -1.82916,10.04036 -8.39996,20.38542 -19.30401,31.28947 -3.9131,3.9131 -7.94559,7.68305 -12.06501,11.32255 -4.19472,3.70613 -8.86465,7.22206 -14.00067,10.55361 -1.13944,0.73231 -2.77855,0.55744 -3.73883,-0.39775 l -68.43912,-68.43911 c -0.96512,-0.97926 -1.11734,-2.65457 -0.34471,-3.79186 2.71961,-3.96974 5.89664,-8.0861 9.51942,-12.33018 3.60799,-4.22647 7.08418,-8.03865 10.47402,-11.42861 z M 49.607474,940.13724 c 0.06711,-0.0742 0.137948,-0.14502 0.212132,-0.21213 l 15.883386,-15.88338 c 1.110796,-1.11059 3.131835,-1.11059 4.242641,0 l 42.559017,42.55901 c 2.69066,2.6907 5.2007,4.61235 7.47765,5.78059 2.35804,1.21002 4.49226,1.80247 6.36396,1.90919 1.88551,0.10769 3.55345,-0.22552 5.25023,-1.0607 1.81204,-0.89206 3.55265,-2.17379 5.25026,-3.87141 3.43552,-3.43551 4.95751,-6.88926 4.98515,-10.87172 0.0248,-3.58589 -2.20813,-8.20077 -7.61024,-13.60297 L 91.66265,902.32471 c -1.110585,-1.11081 -1.110583,-3.13185 0,-4.24264 l 15.88339,-15.88339 c 1.11079,-1.11058 3.13183,-1.11058 4.24264,0 l 43.88484,43.88484 c 4.33811,4.33825 7.74047,8.98469 10.20881,13.92112 2.48792,4.97607 3.83993,10.15026 3.95096,15.45912 0.11188,5.3506 -1.11193,10.77684 -3.57969,16.1486 -2.49404,5.42926 -6.37499,10.72369 -11.58771,15.93641 -5.15395,5.15396 -10.41611,8.98193 -15.83035,11.37558 -5.33794,2.35995 -10.71009,3.49045 -16.01602,3.34105 -5.27124,-0.1483 -10.41897,-1.4868 -15.32654,-3.97748 -4.86519,-2.46915 -9.456216,-5.90299 -13.788538,-10.23533 L 49.819606,944.16775 c -1.048576,-1.03825 -1.145895,-2.88791 -0.212132,-4.03051 z m 288.473056,-273.25257 16.97056,-16.97057 16.97056,16.97057 -16.97056,16.97056 -16.97056,-16.97056 z M 222.3625,799.89145 c -1.34121,1.34138 -2.75552,2.79385 -4.26915,4.37523 -0.77347,0.80811 -1.31497,1.49239 -1.96223,2.22738 l 11.24298,11.24298 5.59498,-5.59498 c 4.70513,-4.70497 7.25164,-8.60911 7.84891,-10.97782 0.60892,-2.41483 0.1262,-4.11636 -2.12132,-6.36396 -2.3117,-2.31163 -3.90927,-2.73322 -6.2579,-2.01525 -2.55918,0.7825 -6.0629,3.09317 -10.07627,7.10642 z m 21.37233,34.20631 14.15981,14.15982 c 0.63118,-0.53784 1.21561,-1.01502 1.88263,-1.61755 1.38166,-1.24759 2.88238,-2.67025 4.48129,-4.26916 4.55016,-4.55016 7.42951,-8.74422 8.777,-12.4362 1.20686,-3.30662 0.63776,-5.67309 -2.46603,-8.77696 -2.72611,-2.72602 -4.85111,-3.30443 -7.71635,-2.51911 -3.06334,0.83969 -6.93666,3.27747 -11.26947,7.61028 l -7.84888,7.84888 z m 136.77213,-124.78667 16.97056,-16.97056 16.97056,16.97056 -16.97056,16.97057 -16.97056,-16.97057 z" id="rect3846" style="color:#000000;fill:#222222;fill-opacity:1;fill-rule:nonzero;stroke:none;stroke-width:10;marker:none;visibility:visible;display:inline;overflow:visible;enable-background:accumulate"/></g></g></g></g></svg>